first trial
nRows=19
nColumns=38

# SIMM Motion File Header:
name Sujet_06_velo_60.mvnx
datacolumns 38
datarows 19
otherdata 1
range 3.9000 4.2000
endheader
time pelvis_tilt  pelvis_list  pelvis_rotation  pelvis_tx  pelvis_ty  pelvis_tz  hip_flexion_r  hip_adduction_r  hip_rotation_r  knee_angle_r  ankle_angle_r  subtalar_angle_r  mtp_angle_r  hip_flexion_l  hip_adduction_l  hip_rotation_l  knee_angle_l  ankle_angle_l  subtalar_angle_l  mtp_angle_l  lumbar_extension  lumbar_bending  lumbar_rotation  arm_flex_r  arm_add_r  arm_rot_r  elbow_flex_r  pro_sup_r  wrist_flex_r  wrist_dev_r  arm_flex_l  arm_add_l  arm_rot_l  elbow_flex_l  pro_sup_l  wrist_flex_l  wrist_dev_l
3.9000	-8.5574	2.6301	-9.5280	0.0000	1.2500	-0.0000	57.9495	0.2137	-4.6513	95.9454	-4.8703	-8.0579	-0.0000	61.9291	-3.3367	-0.6619	59.0085	-7.3992	0.8342	0.0000	-14.7340	-1.2180	-2.2838	91.0967	10.6588	15.8748	2.1838	119.0090	-19.7709	-10.7433	87.9292	-3.2689	33.0696	6.0519	117.6555	-18.6055	-7.0730	
3.9170	-8.5142	2.5582	-9.7428	0.0000	1.2500	-0.0000	59.8396	0.9282	-4.4541	98.8038	-4.7699	-8.4777	-0.0000	59.2417	-3.5153	-1.5588	55.4920	-8.5218	1.2596	0.0000	-14.7385	-1.1831	-2.2431	91.1049	10.6814	15.9523	2.1926	119.0951	-19.7341	-10.6801	87.9226	-3.3094	33.2139	5.7902	117.3642	-18.5937	-7.0975	
3.9340	-8.4714	2.4885	-9.9642	0.0000	1.2500	-0.0000	61.7558	1.7091	-4.3130	101.4359	-4.6376	-8.8297	0.0000	56.5252	-3.7090	-2.4834	52.0545	-9.7529	1.7997	0.0000	-14.7491	-1.1599	-2.1963	91.1050	10.6987	16.0594	2.2152	119.1637	-19.7089	-10.6217	87.9418	-3.3746	33.3207	5.5553	117.0806	-18.5823	-7.1090	
3.9500	-8.4414	2.4265	-10.1995	0.0000	1.2500	-0.0000	63.6736	2.5361	-4.1529	103.8068	-4.3533	-9.0784	0.0000	53.8673	-3.9094	-3.3527	48.8271	-10.9478	2.3733	-0.0000	-14.7577	-1.1527	-2.1350	91.1237	10.7298	16.1229	2.2302	119.2532	-19.6691	-10.5476	87.8907	-3.4731	33.4911	5.3913	116.7225	-18.5935	-7.1314	
3.9670	-8.4240	2.3795	-10.4340	0.0000	1.2500	-0.0000	65.5971	3.4171	-3.9471	105.9191	-3.9026	-9.1659	0.0000	51.2427	-4.1367	-4.1390	45.7839	-12.0614	2.9898	0.0000	-14.7609	-1.1667	-2.0604	91.1764	10.7839	16.0869	2.2271	119.3959	-19.6023	-10.4471	87.6944	-3.6138	33.8241	5.3279	116.1924	-18.6425	-7.1791	
3.9840	-8.4194	2.3401	-10.6825	0.0000	1.2500	-0.0000	67.5211	4.3490	-3.7272	107.7708	-3.2945	-9.1630	-0.0000	48.6746	-4.3792	-4.8729	42.9540	-13.1422	3.6404	0.0000	-14.7618	-1.1966	-1.9713	91.2479	10.8519	16.0073	2.2159	119.5593	-19.5209	-10.3312	87.4284	-3.7881	34.2201	5.3350	115.5877	-18.7142	-7.2380	
4.0000	-8.4388	2.2914	-10.9957	0.0000	1.2500	-0.0000	69.4065	5.2995	-3.5033	109.3158	-2.4460	-9.2271	0.0000	46.3246	-4.5893	-5.5560	40.5511	-14.1778	4.2196	0.0000	-14.7627	-1.2310	-1.8564	91.3183	10.9254	15.9792	2.2060	119.6851	-19.4354	-10.2124	87.2224	-3.9769	34.4821	5.3682	115.1186	-18.7854	-7.2886	
4.0170	-8.4971	2.2250	-11.4146	0.0000	1.2500	-0.0000	71.2597	6.2790	-3.2676	110.5455	-1.2029	-9.4415	-0.0000	44.2163	-4.7535	-6.1761	38.5866	-15.2074	4.7112	-0.0000	-14.7616	-1.2666	-1.7061	91.3843	11.0069	16.0777	2.1990	119.7275	-19.3482	-10.0983	87.1422	-4.1889	34.4528	5.4398	114.9461	-18.8559	-7.3244	
4.0340	-8.5792	2.1485	-11.8986	0.0000	1.2500	-0.0000	73.0751	7.2800	-3.0335	111.4661	0.2767	-9.7144	0.0000	42.3282	-4.8953	-6.7435	37.0486	-16.1875	5.1452	0.0000	-14.7606	-1.3069	-1.5299	91.4487	11.0942	16.2279	2.1936	119.7326	-19.2570	-9.9815	87.1204	-4.4150	34.2898	5.5382	114.9092	-18.9258	-7.3520	
4.0500	-8.6510	2.0699	-12.3773	0.0000	1.2500	-0.0000	74.7964	8.2392	-2.8347	112.0522	1.6084	-9.9377	-0.0000	40.7566	-5.0277	-7.2886	36.1148	-16.9773	5.4827	0.0000	-14.7674	-1.3508	-1.3458	91.5012	11.1734	16.3003	2.1948	119.7795	-19.1650	-9.8517	87.0879	-4.6090	34.2686	5.5847	114.7364	-18.9726	-7.3717	
4.0670	-8.7054	1.9917	-12.8358	0.0000	1.2500	-0.0000	76.4406	9.1461	-2.6622	112.2972	2.6853	-10.0962	-0.0000	39.5447	-5.1596	-7.8340	35.8702	-17.5080	5.6780	-0.0000	-14.7868	-1.4017	-1.1544	91.5388	11.2427	16.2112	2.2146	119.9256	-19.0804	-9.7018	87.0147	-4.7553	34.5861	5.5253	114.2272	-18.9797	-7.3819	
4.0840	-8.7496	1.9120	-13.2889	0.0000	1.2500	-0.0000	77.9921	10.0074	-2.5145	112.2076	3.6160	-10.2093	-0.0000	38.6491	-5.2995	-8.3490	36.2299	-17.8430	5.7730	0.0000	-14.8140	-1.4566	-0.9550	91.5652	11.3033	16.0442	2.2410	120.1138	-18.9951	-9.5389	86.9317	-4.8702	35.0453	5.4128	113.5816	-18.9638	-7.3841	
4.1000	-8.7723	1.8321	-13.7100	0.0000	1.2500	-0.0000	79.3462	10.7812	-2.4233	111.7776	4.3411	-10.2316	-0.0000	38.0347	-5.4649	-8.7813	37.1168	-18.0401	5.8502	0.0000	-14.8425	-1.5038	-0.7627	91.5803	11.3457	15.9206	2.2430	120.2520	-18.8876	-9.3745	86.8610	-4.9531	35.3306	5.3319	113.1303	-18.9518	-7.3842	
4.1170	-8.7613	1.7471	-14.0950	0.0000	1.2500	-0.0000	80.4992	11.4677	-2.3929	111.0000	4.7865	-10.1053	-0.0000	37.7205	-5.6701	-9.1122	38.5875	-18.0909	5.9400	-0.0000	-14.8712	-1.5361	-0.5763	91.5757	11.3668	15.8883	2.1938	120.2901	-18.7260	-9.1954	86.8074	-4.9932	35.2645	5.3214	113.0545	-18.9547	-7.3830	
4.1340	-8.7287	1.6625	-14.4476	0.0000	1.2500	-0.0000	81.4537	12.0614	-2.4000	109.8832	5.0239	-9.8953	-0.0000	37.6863	-5.9140	-9.3539	40.5850	-18.0028	6.0039	-0.0000	-14.9015	-1.5605	-0.3970	91.5596	11.3699	15.8996	2.1201	120.2783	-18.5425	-9.0152	86.7658	-5.0010	35.0246	5.3435	113.1733	-18.9616	-7.3797	
4.1500	-8.7007	1.5962	-14.7528	0.0000	1.2500	-0.0000	82.1117	12.5119	-2.4260	108.4446	5.2134	-9.7288	-0.0000	37.8380	-6.1876	-9.5027	42.8604	-17.8576	6.0154	0.0000	-14.9299	-1.5879	-0.2422	91.5573	11.3551	15.9320	2.0708	120.2745	-18.4112	-8.8857	86.7434	-5.0061	34.8289	5.3698	113.2751	-18.9670	-7.3771	
4.1670	-8.6884	1.5567	-15.0084	0.0000	1.2500	-0.0000	82.4347	12.7933	-2.4559	106.6568	5.4117	-9.6417	-0.0000	38.1577	-6.4960	-9.5405	45.3616	-17.6891	5.9453	-0.0000	-14.9581	-1.6221	-0.1198	91.5877	11.3094	15.9958	2.0760	120.2996	-18.3747	-8.8385	86.7535	-5.0213	34.7552	5.3909	113.2884	-18.9687	-7.3770	
4.1840	-8.6809	1.5353	-15.2166	0.0000	1.2500	-0.0000	82.4579	12.9314	-2.4884	104.5471	5.5638	-9.5792	0.0000	38.6641	-6.8350	-9.4810	48.1394	-17.4604	5.8061	0.0000	-14.9844	-1.6592	-0.0221	91.6319	11.2459	16.0808	2.1057	120.3329	-18.3896	-8.8412	86.7828	-5.0339	34.7256	5.4162	113.2846	-18.9690	-7.3777	
4.2000	-8.6722	1.5234	-15.3693	0.0000	1.2500	-0.0000	82.1937	12.9546	-2.5256	102.2157	5.6638	-9.5266	-0.0000	39.3183	-7.1788	-9.3706	51.1016	-17.1489	5.6388	-0.0000	-15.0015	-1.6985	0.0559	91.6586	11.2042	16.1346	2.1189	120.3699	-18.4004	-8.8498	86.7982	-5.0357	34.7235	5.4450	113.2659	-18.9696	-7.3772	
